<svg width="25" height="25" xmlns="http://www.w3.org/2000/svg" xml:space="preserve" version="1.1">

 <g>
  <title>Layer 1</title>
  <g stroke="null" id="svg_18">
   <path stroke="null" id="svg_1" fill="#4CAF50" d="m12.003,0l-0.006,0l0,0c-6.6165,0 -11.997,5.60625 -11.997,12.5c0,2.73437 0.846,5.26875 2.2845,7.32656l-1.4955,4.64375l4.6125,-1.53594c1.8975,1.30937 4.161,2.06562 6.6015,2.06562c6.6165,0 11.997,-5.60781 11.997,-12.5s-5.3805,-12.5 -11.997,-12.5z"/>
   <path stroke="null" id="svg_2" fill="#FAFAFA" d="m18.9855,17.65156c-0.2895,0.85156 -1.4385,1.55781 -2.355,1.76406c-0.627,0.13906 -1.446,0.25 -4.203,-0.94062c-3.5265,-1.52187 -5.7975,-5.25469 -5.9745,-5.49687c-0.1695,-0.24219 -1.425,-1.97656 -1.425,-3.77031s0.8745,-2.66719 1.227,-3.04219c0.2895,-0.30781 0.768,-0.44844 1.227,-0.44844c0.1485,0 0.282,0.00781 0.402,0.01406c0.3525,0.01562 0.5295,0.0375 0.762,0.61719c0.2895,0.72656 0.9945,2.52031 1.0785,2.70469c0.0855,0.18437 0.171,0.43437 0.051,0.67656c-0.1125,0.25 -0.2115,0.36094 -0.3885,0.57344c-0.177,0.2125 -0.345,0.375 -0.522,0.60312c-0.162,0.19844 -0.345,0.41094 -0.141,0.77812c0.204,0.35937 0.909,1.55781 1.947,2.52031c1.3395,1.24219 2.4255,1.63906 2.814,1.80781c0.2895,0.125 0.6345,0.09531 0.846,-0.13906c0.2685,-0.30156 0.6,-0.80156 0.9375,-1.29375c0.24,-0.35312 0.543,-0.39687 0.861,-0.27187c0.324,0.11719 2.0385,1 2.391,1.18281c0.3525,0.18437 0.585,0.27187 0.6705,0.42656c0.084,0.15469 0.084,0.88125 -0.2055,1.73437z"/>
   <g stroke="null" id="svg_3"/>
   <g stroke="null" id="svg_4"/>
   <g stroke="null" id="svg_5"/>
   <g stroke="null" id="svg_6"/>
   <g stroke="null" id="svg_7"/>
   <g stroke="null" id="svg_8"/>
   <g stroke="null" id="svg_9"/>
   <g stroke="null" id="svg_10"/>
   <g stroke="null" id="svg_11"/>
   <g stroke="null" id="svg_12"/>
   <g stroke="null" id="svg_13"/>
   <g stroke="null" id="svg_14"/>
   <g stroke="null" id="svg_15"/>
   <g stroke="null" id="svg_16"/>
   <g stroke="null" id="svg_17"/>
  </g>
 </g>
</svg>